<?xml version="1.0" encoding="UTF-8" standalone="no"?><!DOCTYPE svg PUBLIC "-//W3C//DTD SVG 1.1//EN" "http://www.w3.org/Graphics/SVG/1.1/DTD/svg11.dtd"><svg width="100%" height="100%" viewBox="0 0 2481 3508" version="1.1" xmlns="http://www.w3.org/2000/svg" xmlns:xlink="http://www.w3.org/1999/xlink" xml:space="preserve" xmlns:serif="http://www.serif.com/" style="fill-rule:evenodd;clip-rule:evenodd;stroke-linejoin:round;stroke-miterlimit:2;"><g opacity="0.06"><path d="M1258.72,3128.35c3.45,-3.444 3.454,-9.04 0.01,-12.49l-330.198,-330.716c-3.444,-3.449 -9.04,-3.454 -12.489,-0.01l-12.499,12.479c-3.45,3.444 -3.454,9.04 -0.01,12.49l330.198,330.716c3.444,3.449 9.04,3.454 12.49,0.01l12.498,-12.479Z" style="fill:#80ffdb;"/><path d="M1564.29,2785.2c-3.447,-3.444 -9.042,-3.441 -12.486,0.005l-330.32,330.603c-3.444,3.447 -3.441,9.042 0.006,12.486l12.491,12.48c3.446,3.444 9.041,3.441 12.485,-0.005l330.32,-330.603c3.444,-3.447 3.441,-9.042 -0.006,-12.486l-12.49,-12.48Z" style="fill:#80ffdb;"/></g><g opacity="0.4"><path d="M1252.72,3339.35c3.45,-3.444 3.454,-9.04 0.01,-12.49l-330.198,-330.716c-3.444,-3.449 -9.04,-3.454 -12.489,-0.01l-12.499,12.479c-3.45,3.444 -3.454,9.04 -0.01,12.49l330.198,330.716c3.444,3.449 9.04,3.454 12.49,0.01l12.498,-12.479Z" style="fill:#80ffdb;"/><path d="M1558.29,2996.2c-3.447,-3.444 -9.042,-3.441 -12.486,0.005l-330.32,330.603c-3.444,3.447 -3.441,9.042 0.006,12.486l12.491,12.48c3.446,3.444 9.041,3.441 12.485,-0.005l330.32,-330.603c3.444,-3.447 3.441,-9.042 -0.006,-12.486l-12.49,-12.48Z" style="fill:#80ffdb;"/></g></svg>