<?xml version="1.0" encoding="UTF-8" standalone="no"?><!DOCTYPE svg PUBLIC "-//W3C//DTD SVG 1.1//EN" "http://www.w3.org/Graphics/SVG/1.1/DTD/svg11.dtd"><svg width="100%" height="100%" viewBox="0 0 10338 14617" version="1.1" xmlns="http://www.w3.org/2000/svg" xmlns:xlink="http://www.w3.org/1999/xlink" xml:space="preserve" xmlns:serif="http://www.serif.com/" style="fill-rule:evenodd;clip-rule:evenodd;stroke-linejoin:round;stroke-miterlimit:2;"><g opacity="0.06"><path d="M5244.67,13430.6c14.375,-14.35 14.391,-37.667 0.041,-52.042l-1375.83,-1377.98c-14.35,-14.371 -37.666,-14.392 -52.037,-0.042l-52.079,51.996c-14.375,14.35 -14.392,37.667 -0.042,52.042l1375.83,1377.98c14.35,14.371 37.667,14.392 52.042,0.042l52.075,-51.996Z" style="fill:#80ffdb;"/><path d="M6517.88,12000.8c-14.362,-14.35 -37.675,-14.337 -52.025,0.021l-1376.33,1377.51c-14.35,14.362 -14.338,37.675 0.025,52.025l52.046,52c14.358,14.35 37.67,14.337 52.02,-0.021l1376.33,-1377.51c14.35,-14.362 14.337,-37.675 -0.025,-52.025l-52.042,-52Z" style="fill:#80ffdb;"/></g><g opacity="0.4"><path d="M5219.67,14309.8c14.375,-14.35 14.391,-37.667 0.041,-52.042l-1375.83,-1377.98c-14.35,-14.371 -37.666,-14.392 -52.037,-0.042l-52.079,51.996c-14.375,14.35 -14.392,37.667 -0.042,52.042l1375.83,1377.98c14.35,14.371 37.667,14.392 52.042,0.042l52.075,-51.996Z" style="fill:#80ffdb;"/><path d="M6492.88,12880c-14.362,-14.35 -37.675,-14.337 -52.025,0.021l-1376.33,1377.51c-14.35,14.363 -14.338,37.675 0.025,52.025l52.046,52c14.358,14.35 37.67,14.338 52.02,-0.021l1376.33,-1377.51c14.35,-14.362 14.337,-37.675 -0.025,-52.025l-52.042,-52Z" style="fill:#80ffdb;"/></g></svg>